<svg width="1808" height="576" viewBox="0 0 1808 576" fill="none" xmlns="http://www.w3.org/2000/svg">
<g clip-path="url(#clip0_3120_1209)">
<rect width="1808" height="576" fill="white"/>
<path opacity="0.7" d="M-208.07 1004.58H-322V884.029M-208.07 1004.58V884.029M-208.07 1004.58H-92.2885V884.029M-208.07 884.029H-322M-208.07 884.029V762.494M-208.07 884.029H-92.2885M-322 884.029V762.494M-208.07 762.494H-322M-208.07 762.494L-208.07 641.939M-208.07 762.494H-92.2885M-322 762.494V641.939M-208.07 641.939H-322M-208.07 641.939V521.383M-208.07 641.939H-92.2885M-322 641.939L-322 521.383M-208.07 521.383H-322M-208.07 521.383L-208.07 399.848M-208.07 521.383H-92.2885M-322 521.383V399.848M-208.07 399.848H-322M-208.07 399.848V279.292M-208.07 399.848H-92.2885M-322 399.848V279.292M-208.07 279.292H-322M-208.07 279.292H-92.2885M-208.07 279.292V158.737M-322 279.292V158.737M249.5 1004.58H134.644V884.029M249.5 1004.58V884.029M249.5 1004.58H363.429V884.029M249.5 884.029H134.644M249.5 884.029V762.494M249.5 884.029H363.429M134.644 884.029V762.494M249.5 762.494H134.644M249.5 762.494V641.939M249.5 762.494H363.429M134.644 762.494V641.939M249.5 641.939H134.644M249.5 641.939V521.383M249.5 641.939H363.429M134.644 641.939L134.644 521.383M249.5 521.383H134.644M249.5 521.383V399.848M249.5 521.383H363.429M134.644 521.383V399.848M249.5 399.848H134.644M249.5 399.848V279.292M249.5 399.848H363.429M134.644 399.848V279.292M249.5 279.292H134.644M249.5 279.292H363.429M249.5 279.292V158.737M134.644 279.292V158.737M20.7147 1004.58H-93.2147V884.029M20.7147 1004.58V884.029M20.7147 1004.58H135.571V884.029M20.7147 884.029H-93.2147M20.7147 884.029V762.494M20.7147 884.029H135.571M-93.2147 884.029L-93.2147 762.494M20.7147 762.494H-93.2147M20.7147 762.494V641.939M20.7147 762.494H135.571M-93.2147 762.494V641.939M20.7147 641.939H-93.2147M20.7147 641.939L20.7147 521.383M20.7147 641.939H135.571M-93.2147 641.939V521.383M20.7147 521.383H-93.2147M20.7147 521.383V399.848M20.7147 521.383H135.571M-93.2147 521.383V399.848M20.7147 399.848H-93.2147M20.7147 399.848V279.292M20.7147 399.848H135.571M-93.2147 399.848L-93.2147 279.292M20.7147 279.292H-93.2147M20.7147 279.292H135.571M20.7147 279.292V158.737M-93.2147 279.292V158.737M477.359 1004.58H362.503V884.029M477.359 1004.58V884.029M477.359 1004.58H591.289M477.359 884.029H362.503M477.359 884.029V762.494M477.359 884.029H591.289M362.503 884.029V762.494M477.359 762.494H362.503M477.359 762.494V641.939M477.359 762.494H591.289M362.503 762.494V641.939M477.359 641.939H362.503M477.359 641.939V521.383M477.359 641.939H591.289M362.503 641.939V521.383M477.359 521.383H362.503M477.359 521.383V399.848M477.359 521.383H591.289M362.503 521.383V399.848M477.359 399.848H362.503M477.359 399.848V279.292M477.359 399.848H591.289M362.503 399.848V279.292M477.359 279.292H362.503M477.359 279.292H591.289M477.359 279.292V158.737M362.503 279.292V158.737M591.289 1004.58L707.071 1004.58M591.289 1004.58V884.029M707.071 1004.58V884.029M707.071 1004.58H821M707.071 884.029H591.289M707.071 884.029V762.494M707.071 884.029L821 884.029M591.289 884.029V762.494M707.071 762.494H591.289M707.071 762.494V641.939M707.071 762.494H821M591.289 762.494V641.939M707.071 641.939H591.289M707.071 641.939V521.383M707.071 641.939H821M591.289 641.939V521.383M707.071 521.383H591.289M707.071 521.383V399.848M707.071 521.383H821M591.289 521.383V399.848M707.071 399.848L591.289 399.848M707.071 399.848V279.292M707.071 399.848H821M591.289 399.848V279.292M707.071 279.292L591.289 279.292M707.071 279.292H821M707.071 279.292V158.737M591.289 279.292V158.737M-92.2885 884.029L-92.2885 762.494M-92.2885 762.494V641.939M-92.2885 641.939V521.383M-92.2885 521.383V399.848M-92.2885 399.848L-92.2885 279.292M-92.2885 279.292V158.737M363.429 884.029V762.494M363.429 762.494V641.939M363.429 641.939V521.383M363.429 521.383V399.848M363.429 399.848V279.292M363.429 279.292V158.737M135.571 884.029V762.494M135.571 762.494V641.939M135.571 641.939L135.571 521.383M135.571 521.383V399.848M135.571 399.848V279.292M135.571 279.292V158.737M821 1004.58V884.029M821 1004.58H934.93M821 884.029V762.494M821 884.029H934.93M821 762.494V641.939M821 762.494L934.93 762.494M821 641.939V521.383M821 641.939H934.93M821 521.383V399.848M821 521.383H934.93M821 399.848V279.292M821 399.848H934.93M821 279.292H934.93M821 279.292V158.737M934.93 1004.58V884.029M934.93 1004.58H1050.71V884.029M934.93 884.029V762.494M934.93 884.029H1050.71M934.93 762.494V641.939M934.93 762.494H1050.71M934.93 641.939V521.383M934.93 641.939H1050.71M934.93 521.383V399.848M934.93 521.383H1050.71M934.93 399.848V279.292M934.93 399.848H1050.71M934.93 279.292H1050.71M934.93 279.292V158.737M1392.5 1004.58H1277.64V884.029M1392.5 1004.58V884.029M1392.5 1004.58H1506.43V884.029M1392.5 884.029H1277.64M1392.5 884.029V762.494M1392.5 884.029H1506.43M1277.64 884.029V762.494M1392.5 762.494H1277.64M1392.5 762.494V641.939M1392.5 762.494H1506.43M1277.64 762.494V641.939M1392.5 641.939H1277.64M1392.5 641.939V521.383M1392.5 641.939H1506.43M1277.64 641.939V521.383M1392.5 521.383H1277.64M1392.5 521.383V399.848M1392.5 521.383H1506.43M1277.64 521.383V399.848M1392.5 399.848H1277.64M1392.5 399.848V279.292M1392.5 399.848H1506.43M1277.64 399.848V279.292M1392.5 279.292H1277.64M1392.5 279.292H1506.43M1392.5 279.292V158.737M1277.64 279.292V158.737M1163.71 1004.58H1049.79V884.029M1163.71 1004.58V884.029M1163.71 1004.58H1278.57V884.029M1163.71 884.029H1049.79M1163.71 884.029V762.494M1163.71 884.029H1278.57M1049.79 884.029V762.494M1163.71 762.494H1049.79M1163.71 762.494V641.939M1163.71 762.494H1278.57M1049.79 762.494V641.939M1163.71 641.939L1049.79 641.939M1163.71 641.939V521.383M1163.71 641.939H1278.57M1049.79 641.939V521.383M1163.71 521.383L1049.79 521.383M1163.71 521.383V399.848M1163.71 521.383H1278.57M1049.79 521.383V399.848M1163.71 399.848H1049.79M1163.71 399.848V279.292M1163.71 399.848H1278.57M1049.79 399.848V279.292M1163.71 279.292H1049.79M1163.71 279.292H1278.57M1163.71 279.292V158.737M1049.79 279.292V158.737M1620.36 1004.58H1505.5V884.029M1620.36 1004.58V884.029M1620.36 1004.58H1734.29M1620.36 884.029H1505.5M1620.36 884.029V762.494M1620.36 884.029H1734.29M1505.5 884.029V762.494M1620.36 762.494H1505.5M1620.36 762.494V641.939M1620.36 762.494H1734.29M1505.5 762.494V641.939M1620.36 641.939H1505.5M1620.36 641.939V521.383M1620.36 641.939H1734.29M1505.5 641.939V521.383M1620.36 521.383H1505.5M1620.36 521.383V399.848M1620.36 521.383H1734.29M1505.5 521.383V399.848M1620.36 399.848H1505.5M1620.36 399.848V279.292M1620.36 399.848H1734.29M1505.5 399.848V279.292M1620.36 279.292H1505.5M1620.36 279.292H1734.29M1620.36 279.292V158.737M1505.5 279.292V158.737M1734.29 1004.58H1850.07M1734.29 1004.58V884.029M1850.07 1004.58V884.029M1850.07 1004.58H1964V884.029M1850.07 884.029H1734.29M1850.07 884.029V762.494M1850.07 884.029H1964M1734.29 884.029V762.494M1850.07 762.494H1734.29M1850.07 762.494V641.939M1850.07 762.494H1964M1734.29 762.494V641.939M1850.07 641.939H1734.29M1850.07 641.939V521.383M1850.07 641.939H1964M1734.29 641.939V521.383M1850.07 521.383H1734.29M1850.07 521.383V399.848M1850.07 521.383H1964M1734.29 521.383V399.848M1850.07 399.848H1734.29M1850.07 399.848V279.292M1850.07 399.848H1964M1734.29 399.848V279.292M1850.07 279.292H1734.29M1850.07 279.292H1964M1850.07 279.292V158.737M1734.29 279.292V158.737M1050.71 884.029V762.494M1050.71 762.494V641.939M1050.71 641.939V521.383M1050.71 521.383V399.848M1050.71 399.848V279.292M1050.71 279.292V158.737M1506.43 884.029V762.494M1506.43 762.494V641.939M1506.43 641.939V521.383M1506.43 521.383V399.848M1506.43 399.848V279.292M1506.43 279.292V158.737M1278.57 884.029V762.494M1278.57 762.494V641.939M1278.57 641.939V521.383M1278.57 521.383V399.848M1278.57 399.848V279.292M1278.57 279.292V158.737M1964 884.029V762.494M1964 762.494V641.939M1964 641.939V521.383M1964 521.383V399.848M1964 399.848V279.292M1964 279.292V158.737M-208.07 158.737H-322M-208.07 158.737V37.2015M-208.07 158.737H-92.2885M-322 158.737V37.2015M-208.07 37.2015H-322M-208.07 37.2015V-83.3537M-208.07 37.2015H-92.2885M-322 37.2015V-83.3537M-208.07 -83.3537H-322M-208.07 -83.3537V-203.909M-208.07 -83.3537H-92.2885M-322 -83.3537V-203.909M-208.07 -203.909H-322M-208.07 -203.909L-208.07 -325.445M-208.07 -203.909H-92.2885M-322 -203.909V-325.445M-208.07 -325.445H-322M-208.07 -325.445V-446M-208.07 -325.445H-92.2885M-322 -325.445L-322 -446H-208.07M-208.07 -446H-92.2885V-325.445M249.5 158.737H134.644M249.5 158.737L249.5 37.2015M249.5 158.737H363.429M134.644 158.737V37.2015M249.5 37.2015H134.644M249.5 37.2015V-83.3537M249.5 37.2015H363.429M134.644 37.2015V-83.3537M249.5 -83.3537H134.644M249.5 -83.3537V-203.909M249.5 -83.3537H363.429M134.644 -83.3537V-203.909M249.5 -203.909H134.644M249.5 -203.909V-325.445M249.5 -203.909H363.429M134.644 -203.909V-325.445M249.5 -325.445H134.644M249.5 -325.445V-446M249.5 -325.445H363.429M134.644 -325.445L134.644 -446H249.5M249.5 -446H363.429V-325.445M20.7147 158.737H-93.2147M20.7147 158.737V37.2015M20.7147 158.737H135.571M-93.2147 158.737V37.2015M20.7147 37.2015H-93.2147M20.7147 37.2015V-83.3537M20.7147 37.2015H135.571M-93.2147 37.2015V-83.3537M20.7147 -83.3537H-93.2147M20.7147 -83.3537V-203.909M20.7147 -83.3537H135.571M-93.2147 -83.3537L-93.2147 -203.909M20.7147 -203.909H-93.2147M20.7147 -203.909V-325.445M20.7147 -203.909H135.571M-93.2147 -203.909V-325.445M20.7147 -325.445H-93.2147M20.7147 -325.445L20.7147 -446M20.7147 -325.445H135.571M-93.2147 -325.445V-446H20.7147M20.7147 -446H135.571L135.571 -325.445M477.359 158.737H362.503M477.359 158.737L477.359 37.2015M477.359 158.737H591.289M362.503 158.737L362.503 37.2015M477.359 37.2015H362.503M477.359 37.2015V-83.3537M477.359 37.2015H591.289M362.503 37.2015V-83.3537M477.359 -83.3537H362.503M477.359 -83.3537V-203.909M477.359 -83.3537H591.289M362.503 -83.3537V-203.909M477.359 -203.909H362.503M477.359 -203.909V-325.445M477.359 -203.909H591.289M362.503 -203.909V-325.445M477.359 -325.445H362.503M477.359 -325.445V-446M477.359 -325.445H591.289M362.503 -325.445V-446H477.359M477.359 -446H591.289M707.071 158.737L591.289 158.737M707.071 158.737V37.2015M707.071 158.737H821M591.289 158.737L591.289 37.2015M707.071 37.2015L591.289 37.2015M707.071 37.2015V-83.3537M707.071 37.2015H821M591.289 37.2015V-83.3537M707.071 -83.3537H591.289M707.071 -83.3537V-203.909M707.071 -83.3537H821M591.289 -83.3537V-203.909M707.071 -203.909H591.289M707.071 -203.909V-325.445M707.071 -203.909H821M591.289 -203.909V-325.445M707.071 -325.445H591.289M707.071 -325.445V-446M707.071 -325.445H821M591.289 -325.445V-446M707.071 -446H591.289M707.071 -446H821M-92.2885 158.737V37.2015M-92.2885 37.2015V-83.3537M-92.2885 -83.3537L-92.2885 -203.909M-92.2885 -203.909V-325.445M363.429 158.737L363.429 37.2015M363.429 37.2015V-83.3537M363.429 -83.3537V-203.909M363.429 -203.909V-325.445M135.571 158.737V37.2015M135.571 37.2015V-83.3537M135.571 -83.3537V-203.909M135.571 -203.909V-325.445M821 158.737V37.2015M821 158.737H934.93M821 37.2015V-83.3537M821 37.2015H934.93M821 -83.3537V-203.909M821 -83.3537H934.93M821 -203.909V-325.445M821 -203.909H934.93M821 -325.445V-446M821 -325.445H934.93M821 -446H934.93M934.93 158.737V37.2015M934.93 158.737H1050.71M934.93 37.2015V-83.3537M934.93 37.2015H1050.71M934.93 -83.3537V-203.909M934.93 -83.3537H1050.71M934.93 -203.909V-325.445M934.93 -203.909H1050.71M934.93 -325.445V-446M934.93 -325.445H1050.71M934.93 -446H1050.71V-325.445M1392.5 158.737H1277.64M1392.5 158.737V37.2015M1392.5 158.737H1506.43M1277.64 158.737V37.2015M1392.5 37.2015H1277.64M1392.5 37.2015V-83.3537M1392.5 37.2015H1506.43M1277.64 37.2015V-83.3537M1392.5 -83.3537H1277.64M1392.5 -83.3537V-203.909M1392.5 -83.3537H1506.43M1277.64 -83.3537V-203.909M1392.5 -203.909H1277.64M1392.5 -203.909V-325.445M1392.5 -203.909H1506.43M1277.64 -203.909V-325.445M1392.5 -325.445H1277.64M1392.5 -325.445V-446M1392.5 -325.445H1506.43M1277.64 -325.445V-446H1392.5M1392.5 -446H1506.43V-325.445M1163.71 158.737H1049.79M1163.71 158.737V37.2015M1163.71 158.737H1278.57M1049.79 158.737V37.2015M1163.71 37.2015H1049.79M1163.71 37.2015V-83.3537M1163.71 37.2015H1278.57M1049.79 37.2015V-83.3537M1163.71 -83.3537H1049.79M1163.71 -83.3537V-203.909M1163.71 -83.3537H1278.57M1049.79 -83.3537V-203.909M1163.71 -203.909H1049.79M1163.71 -203.909V-325.445M1163.71 -203.909H1278.57M1049.79 -203.909V-325.445M1163.71 -325.445H1049.79M1163.71 -325.445V-446M1163.71 -325.445H1278.57M1049.79 -325.445V-446H1163.71M1163.71 -446H1278.57V-325.445M1620.36 158.737H1505.5M1620.36 158.737V37.2015M1620.36 158.737H1734.29M1505.5 158.737V37.2015M1620.36 37.2015H1505.5M1620.36 37.2015V-83.3537M1620.36 37.2015H1734.29M1505.5 37.2015V-83.3537M1620.36 -83.3537L1505.5 -83.3537M1620.36 -83.3537V-203.909M1620.36 -83.3537H1734.29M1505.5 -83.3537V-203.909M1620.36 -203.909L1505.5 -203.909M1620.36 -203.909V-325.445M1620.36 -203.909H1734.29M1505.5 -203.909V-325.445M1620.36 -325.445L1505.5 -325.445M1620.36 -325.445V-446M1620.36 -325.445H1734.29M1505.5 -325.445V-446L1620.36 -446M1620.36 -446H1734.29M1850.07 158.737H1734.29M1850.07 158.737V37.2015M1850.07 158.737H1964M1734.29 158.737V37.2015M1850.07 37.2015H1734.29M1850.07 37.2015V-83.3537M1850.07 37.2015H1964M1734.29 37.2015V-83.3537M1850.07 -83.3537H1734.29M1850.07 -83.3537V-203.909M1850.07 -83.3537H1964M1734.29 -83.3537V-203.909M1850.07 -203.909H1734.29M1850.07 -203.909V-325.445M1850.07 -203.909H1964M1734.29 -203.909V-325.445M1850.07 -325.445H1734.29M1850.07 -325.445V-446M1850.07 -325.445H1964M1734.29 -325.445V-446M1850.07 -446H1734.29M1850.07 -446H1964V-325.445M1050.71 158.737V37.2015M1050.71 37.2015V-83.3537M1050.71 -83.3537V-203.909M1050.71 -203.909V-325.445M1506.43 158.737V37.2015M1506.43 37.2015V-83.3537M1506.43 -83.3537V-203.909M1506.43 -203.909V-325.445M1278.57 158.737V37.2015M1278.57 37.2015V-83.3537M1278.57 -83.3537V-203.909M1278.57 -203.909V-325.445M1964 158.737V37.2015M1964 37.2015V-83.3537M1964 -83.3537V-203.909M1964 -203.909V-325.445" stroke="url(#paint0_radial_3120_1209)" stroke-opacity="0.6" stroke-width="0.949336"/>
<g filter="url(#filter0_f_3120_1209)">
<ellipse cx="904.5" cy="287.5" rx="757.5" ry="246.5" fill="white"/>
</g>
<path d="M493.725 320.038C488.862 320.038 484.784 319.095 481.489 317.207C478.195 315.32 475.607 312.764 473.724 309.54V260.941C475.763 257.559 478.43 254.925 481.724 253.037C485.019 251.15 489.019 250.206 493.725 250.206C499.921 250.206 505.216 251.701 509.608 254.689C514 257.677 517.373 261.806 519.726 267.075C522.158 272.343 523.373 278.399 523.373 285.24C523.373 292.003 522.158 298.019 519.726 303.288C517.373 308.557 514 312.685 509.608 315.674C505.216 318.584 499.921 320.038 493.725 320.038ZM458.9 341.743V252.094H473.724V341.743H458.9ZM491.372 306.709C494.98 306.709 498.039 305.805 500.549 303.996C503.059 302.108 504.941 299.553 506.196 296.328C507.53 293.026 508.196 289.329 508.196 285.24C508.196 281.072 507.53 277.337 506.196 274.034C504.941 270.731 503.059 268.175 500.549 266.367C498.039 264.479 494.98 263.536 491.372 263.536C487.372 263.536 484.078 264.519 481.489 266.485C478.901 268.372 476.94 270.967 475.607 274.27C474.352 277.494 473.724 281.151 473.724 285.24C473.724 289.251 474.352 292.908 475.607 296.211C476.94 299.435 478.901 301.991 481.489 303.878C484.078 305.765 487.372 306.709 491.372 306.709Z" fill="black"/>
<path d="M560.591 320.052C553.89 320.052 548.006 318.598 542.941 315.687C537.954 312.698 534.057 308.569 531.252 303.299C528.524 298.029 527.161 292.012 527.161 285.248C527.161 278.404 528.524 272.348 531.252 267.078C534.057 261.808 537.954 257.679 542.941 254.69C548.006 251.701 553.929 250.206 560.709 250.206C567.41 250.206 573.255 251.701 578.242 254.69C583.229 257.679 587.087 261.808 589.815 267.078C592.62 272.348 594.022 278.404 594.022 285.248C594.022 292.012 592.62 298.029 589.815 303.299C587.087 308.569 583.229 312.698 578.242 315.687C573.255 318.598 567.371 320.052 560.591 320.052ZM560.709 306.721C564.683 306.721 568.034 305.816 570.761 304.007C573.489 302.119 575.554 299.563 576.956 296.338C578.359 293.034 579.06 289.337 579.06 285.248C579.06 281.079 578.359 277.343 576.956 274.039C575.554 270.736 573.489 268.179 570.761 266.37C568.034 264.482 564.683 263.539 560.709 263.539C556.656 263.539 553.267 264.482 550.539 266.37C547.812 268.179 545.747 270.736 544.344 274.039C542.941 277.343 542.24 281.079 542.24 285.248C542.24 289.337 542.941 293.034 544.344 296.338C545.747 299.563 547.812 302.119 550.539 304.007C553.267 305.816 556.656 306.721 560.709 306.721Z" fill="black"/>
<path d="M675.679 320.038C670.83 320.038 666.765 319.095 663.48 317.207C660.196 315.32 657.616 312.764 655.74 309.54V260.941C657.772 257.559 660.431 254.925 663.715 253.037C666.999 251.15 670.987 250.206 675.679 250.206C681.856 250.206 687.134 251.701 691.513 254.689C695.891 257.677 699.254 261.806 701.599 267.075C704.023 272.343 705.236 278.399 705.236 285.24C705.236 292.003 704.023 298.019 701.599 303.288C699.254 308.557 695.891 312.685 691.513 315.674C687.134 318.584 681.856 320.038 675.679 320.038ZM640.961 341.743V252.094H655.74V341.743H640.961ZM673.333 306.709C676.93 306.709 679.979 305.805 682.481 303.996C684.983 302.108 686.86 299.553 688.111 296.328C689.44 293.026 690.105 289.329 690.105 285.24C690.105 281.072 689.44 277.337 688.111 274.034C686.86 270.731 684.983 268.175 682.481 266.367C679.979 264.479 676.93 263.536 673.333 263.536C669.345 263.536 666.061 264.519 663.48 266.485C660.9 268.372 658.945 270.967 657.616 274.27C656.365 277.494 655.74 281.151 655.74 285.24C655.74 289.251 656.365 292.908 657.616 296.211C658.945 299.435 660.9 301.991 663.48 303.878C666.061 305.765 669.345 306.709 673.333 306.709Z" fill="black"/>
<path d="M866.922 320.038C871.77 320.038 875.836 319.095 879.12 317.207C882.404 315.32 884.985 312.764 886.861 309.54V260.941C884.828 257.559 882.169 254.925 878.885 253.037C875.601 251.15 871.614 250.206 866.922 250.206C860.745 250.206 855.467 251.701 851.087 254.689C846.709 257.677 843.347 261.806 841.001 267.075C838.577 272.343 837.365 278.399 837.365 285.24C837.365 292.003 838.577 298.019 841.001 303.288C843.347 308.557 846.709 312.685 851.087 315.674C855.467 318.584 860.745 320.038 866.922 320.038ZM901.639 320.038V252.094H886.861V320.038H901.639ZM869.268 306.709C865.671 306.709 862.621 305.805 860.119 303.996C857.617 302.108 855.74 299.553 854.489 296.328C853.16 293.026 852.495 289.329 852.495 285.24C852.495 281.072 853.16 277.337 854.489 274.034C855.74 270.731 857.617 268.175 860.119 266.367C862.621 264.479 865.671 263.536 869.268 263.536C873.256 263.536 876.54 264.519 879.12 266.485C881.701 268.372 883.655 270.967 884.985 274.27C886.236 277.494 886.861 281.151 886.861 285.24C886.861 289.251 886.236 292.908 884.985 296.211C883.655 299.435 881.701 301.991 879.12 303.878C876.54 305.765 873.256 306.709 869.268 306.709Z" fill="black"/>
<path d="M715.857 252.304H730.219V318.062H715.857V252.304ZM711.606 229.054L727.347 225.531L730.908 241.618L715.168 245.258L711.606 229.054Z" fill="black"/>
<path d="M912.949 252.304H927.31V318.062H912.949V252.304ZM908.698 229.054L924.438 225.531L928 241.618L912.259 245.258L908.698 229.054Z" fill="black"/>
<path d="M752.854 290.085V277.933H791.402L786.129 281.354C786.442 278.365 786.052 275.534 784.958 272.859C783.942 270.106 782.263 267.865 779.92 266.134C777.576 264.404 774.53 263.539 770.78 263.539C765.703 263.539 761.446 265.151 758.009 268.376C754.573 271.601 752.854 276.241 752.854 282.298H737.271C737.739 275.455 739.497 269.674 742.543 264.954C745.668 260.156 749.651 256.499 754.494 253.982C759.415 251.465 764.844 250.206 770.78 250.206C775.233 250.206 779.411 251.111 783.317 252.92C787.301 254.65 790.699 257.246 793.511 260.707C796.401 264.089 798.51 268.258 799.838 273.213C801.244 278.168 801.517 283.792 800.658 290.085H752.854ZM770.78 320.052C764.61 320.052 759.142 318.794 754.377 316.277C749.612 313.76 745.784 310.26 742.894 305.776C740.004 301.293 738.208 296.063 737.505 290.085H752.854C753.479 294.961 755.236 298.973 758.126 302.119C761.016 305.187 765.235 306.721 770.78 306.721C774.686 306.721 777.81 305.816 780.154 304.007C782.575 302.119 784.294 299.838 785.309 297.164H800.775C799.838 301.726 798.002 305.737 795.269 309.198C792.535 312.58 789.098 315.255 784.958 317.221C780.818 319.109 776.092 320.052 770.78 320.052Z" fill="black"/>
<path d="M633.917 317.903V305.458H619.194V264.88H632.077V252.26H619.194V225.617H604.733V252.26H596.057V264.88H604.733V317.903H633.917Z" fill="black"/>
<path d="M827.529 300.238L811.788 303.761L815.35 319.965L831.09 316.325L827.529 300.238Z" fill="black"/>
<path fill-rule="evenodd" clip-rule="evenodd" d="M300.993 210.964C310.351 201.679 325.438 201.679 334.797 210.964C339.784 215.912 346.689 218.426 353.687 217.844C364.645 216.931 374.506 223.538 378.172 233.38L324.95 263.746L320.638 266.254C316.893 268.434 314.564 272.414 314.501 276.748L314.191 298.164L314.191 304.504C314.191 309.069 316.693 313.284 320.732 315.461L369.511 341.751C365.276 344.175 361.834 347.86 359.712 352.361C354.091 364.289 339.913 369.452 327.947 363.931C321.568 360.987 314.222 360.987 307.843 363.931C295.876 369.452 281.698 364.289 276.078 352.361C273.082 346.004 267.454 341.278 260.677 339.43C247.963 335.963 240.42 322.888 243.776 310.134C245.564 303.337 244.289 296.096 240.284 290.322C232.773 279.487 235.392 264.621 246.154 257.011C251.891 252.953 255.564 246.587 256.206 239.588C257.412 226.458 268.969 216.751 282.102 217.844C289.101 218.426 296.005 215.912 300.993 210.964Z" fill="#B6E343"/>
<path fill-rule="evenodd" clip-rule="evenodd" d="M329.505 273.85L329.603 273.657L329.699 273.506C329.621 273.616 329.554 273.728 329.505 273.85ZM381.415 325.865C382.276 326.331 382.707 326.565 382.934 326.949C383.121 327.263 383.201 327.709 383.136 328.068C383.056 328.507 382.766 328.84 382.184 329.506C381.276 330.547 380.274 331.514 379.189 332.391C378.625 332.847 378.344 333.075 377.934 333.213C377.602 333.326 377.154 333.368 376.808 333.319C376.379 333.257 376.009 333.058 375.27 332.66L325.804 306.017C325.24 305.711 324.888 305.12 324.888 304.478L324.888 298.137C324.888 296.815 326.296 295.973 327.457 296.601L381.415 325.865Z" fill="#B6E343"/>
<path fill-rule="evenodd" clip-rule="evenodd" d="M381.177 249.483C381.906 247.453 382.271 246.438 382.039 245.864C381.838 245.368 381.404 245.002 380.881 244.888C380.276 244.756 379.338 245.287 377.46 246.347L330.248 273.013C330.02 273.145 329.838 273.312 329.698 273.505L329.602 273.656L329.504 273.849C329.394 274.113 329.351 274.399 329.374 274.676L329.382 274.756C329.449 275.29 329.758 275.794 330.305 276.081L380.497 304.436C381.436 304.967 381.905 305.232 382.208 305.165C382.469 305.109 382.686 304.926 382.786 304.677C382.902 304.391 382.72 303.884 382.356 302.869L372.499 275.411C372.382 275.086 372.324 274.923 372.301 274.757C372.281 274.609 372.281 274.459 372.301 274.311C372.324 274.145 372.382 273.982 372.499 273.657L381.177 249.483Z" fill="#B6E343"/>
<path d="M1123.51 270.72C1114.78 270.72 1108.57 263.835 1108.57 254.25C1108.57 244.665 1114.78 237.78 1123.51 237.78C1131.11 237.78 1136.56 243.045 1137.1 250.83L1132.64 251.28C1132.1 245.385 1128.59 241.695 1123.51 241.695C1117.39 241.695 1112.98 246.96 1112.98 254.25C1112.98 261.54 1117.34 266.85 1123.51 266.85C1128.64 266.85 1132.19 263.16 1132.64 257.445L1137.1 257.895C1136.51 265.59 1131.07 270.72 1123.51 270.72ZM1152.75 270.72C1146.27 270.72 1141.77 265.815 1141.77 258.795C1141.77 251.775 1146.32 246.78 1152.75 246.78C1159.19 246.78 1163.69 251.73 1163.69 258.795C1163.69 265.86 1159.19 270.72 1152.75 270.72ZM1146.18 258.795C1146.18 263.655 1148.79 266.85 1152.75 266.85C1156.71 266.85 1159.32 263.655 1159.32 258.795C1159.32 253.89 1156.71 250.65 1152.75 250.65C1148.79 250.65 1146.18 253.89 1146.18 258.795ZM1183.15 255.87C1183.15 252.585 1181.53 250.65 1178.83 250.65C1175.19 250.65 1172.67 254.115 1172.67 259.065V270H1168.39V247.5H1172.67V251.55C1174.02 248.67 1176.94 246.78 1180.5 246.78C1184.91 246.78 1187.43 249.705 1187.43 254.745V270H1183.15V255.87ZM1202.31 270C1197.76 270 1195.56 267.84 1195.56 263.385V251.37H1190.7V247.5H1195.56V240.3H1199.83V247.5H1206.58V251.37H1199.83V263.43C1199.83 265.23 1200.73 266.13 1202.53 266.13H1206.58V270H1202.31ZM1220.52 270.72C1213.86 270.72 1209.4 265.905 1209.4 258.75C1209.4 251.685 1213.72 246.78 1219.98 246.78C1226.23 246.78 1230.42 251.595 1230.42 258.84V259.965H1213.81C1213.81 264.015 1216.51 266.85 1220.34 266.85C1223.13 266.85 1225.33 265.365 1225.96 263.025L1230.33 263.475C1229.52 267.84 1225.6 270.72 1220.52 270.72ZM1213.81 256.455H1226.01C1226.01 252.855 1223.67 250.65 1219.93 250.65C1216.2 250.65 1213.81 252.9 1213.81 256.455ZM1248.29 270L1242.76 262.26L1237.18 270H1232.18L1240.24 258.75L1232.18 247.5H1237.18L1242.76 255.24L1248.29 247.5H1253.33L1245.28 258.75L1253.33 270H1248.29ZM1266.2 270C1261.66 270 1259.45 267.84 1259.45 263.385V251.37H1254.59V247.5H1259.45V240.3H1263.73V247.5H1270.48V251.37H1263.73V263.43C1263.73 265.23 1264.63 266.13 1266.43 266.13H1270.48V270H1266.2ZM1294.82 279.72C1289.2 279.72 1284.7 276.57 1284.7 272.655L1289.24 272.205C1289.38 274.275 1291.76 275.85 1294.82 275.85C1298.92 275.85 1301.39 273.285 1301.39 269.145V265.995C1300.13 268.965 1297.48 270.72 1294.01 270.72C1288.21 270.72 1284.02 265.725 1284.02 258.75C1284.02 251.73 1288.16 246.78 1294.01 246.78C1297.48 246.78 1300.13 248.535 1301.39 251.505V247.5H1305.67V268.695C1305.67 275.445 1301.48 279.72 1294.82 279.72ZM1288.43 258.75C1288.43 263.565 1291.04 266.85 1294.91 266.85C1298.78 266.85 1301.39 263.565 1301.39 258.75C1301.39 253.935 1298.78 250.65 1294.91 250.65C1291.04 250.65 1288.43 253.935 1288.43 258.75ZM1312.09 270V247.5H1316.37V252.855C1317.18 249.435 1318.93 247.5 1321.36 247.5H1325.5V251.37H1321.81C1318.08 251.37 1316.37 254.115 1316.37 260.055V270H1312.09ZM1335.14 270.72C1330.73 270.72 1327.45 267.705 1327.45 263.655C1327.45 259.38 1331.14 256.635 1337.35 256.365C1341.22 256.185 1342.84 255.105 1342.39 253.125C1342.03 251.505 1340.5 250.65 1338.02 250.65C1334.51 250.65 1332.22 252.36 1332.22 255.015L1328.03 254.565C1328.03 249.93 1332.08 246.78 1338.11 246.78C1343.83 246.78 1346.84 249.66 1346.84 255.195V270H1342.57V265.14C1341.53 268.605 1338.83 270.72 1335.14 270.72ZM1331.86 263.52C1331.86 265.545 1333.48 266.85 1335.82 266.85C1339.6 266.85 1342.57 263.43 1342.57 259.065V257.85C1341.67 258.885 1340.14 259.515 1337.98 259.65C1334.42 259.83 1331.86 260.955 1331.86 263.52ZM1364.48 270.72C1361.06 270.72 1358.41 268.965 1357.1 266.085V279H1352.83V247.5H1357.1V251.415C1358.41 248.535 1361.06 246.78 1364.48 246.78C1370.33 246.78 1374.47 251.775 1374.47 258.75C1374.47 265.725 1370.33 270.72 1364.48 270.72ZM1357.1 258.75C1357.1 263.565 1359.71 266.85 1363.58 266.85C1367.45 266.85 1370.06 263.565 1370.06 258.75C1370.06 253.935 1367.45 250.65 1363.58 250.65C1359.71 250.65 1357.1 253.935 1357.1 258.75ZM1394.09 255.87C1394.09 252.585 1392.47 250.65 1389.77 250.65C1386.12 250.65 1383.6 254.115 1383.6 259.065V270H1379.33V238.5H1383.6V251.55C1384.95 248.67 1387.88 246.78 1391.43 246.78C1395.84 246.78 1398.36 249.705 1398.36 254.745V270H1394.09V255.87Z" fill="#8FC700"/>
<path d="M1417.44 244.665C1417.44 240.21 1419.65 238.05 1424.19 238.05H1428.47V241.92H1424.42C1422.62 241.92 1421.72 242.82 1421.72 244.62V247.5H1428.47V251.37H1421.72V270H1417.44V251.37H1412.58V247.5H1417.44V244.665ZM1440.9 270.72C1434.42 270.72 1429.92 265.815 1429.92 258.795C1429.92 251.775 1434.47 246.78 1440.9 246.78C1447.34 246.78 1451.84 251.73 1451.84 258.795C1451.84 265.86 1447.34 270.72 1440.9 270.72ZM1434.33 258.795C1434.33 263.655 1436.94 266.85 1440.9 266.85C1444.86 266.85 1447.47 263.655 1447.47 258.795C1447.47 253.89 1444.86 250.65 1440.9 250.65C1436.94 250.65 1434.33 253.89 1434.33 258.795ZM1456.54 270V247.5H1460.81V252.855C1461.62 249.435 1463.38 247.5 1465.81 247.5H1469.95V251.37H1466.26C1462.52 251.37 1460.81 254.115 1460.81 260.055V270H1456.54ZM1106.59 326L1117.25 294.5H1124.95L1135.61 326H1130.21L1126.97 316.415H1115.23L1111.99 326H1106.59ZM1116.76 311.96H1125.49L1121.12 299L1116.76 311.96ZM1139.7 326V294.5H1145.01V326H1139.7ZM1150.99 314.93V310.475H1166.38V314.93H1150.99ZM1187.06 312.14C1187.06 309.08 1185.57 307.28 1183.05 307.28C1179.72 307.28 1177.47 310.43 1177.47 315.065V326H1172.3V303.5H1177.47V307.685C1178.91 304.715 1181.79 302.78 1185.26 302.78C1189.71 302.78 1192.23 305.84 1192.23 311.195V326H1187.06V312.14ZM1204.98 326.72C1200.48 326.72 1197.06 323.705 1197.06 319.7C1197.06 315.515 1200.75 312.86 1207.09 312.5C1210.83 312.32 1212.49 311.375 1212.09 309.575C1211.73 308.09 1210.24 307.28 1207.86 307.28C1204.71 307.28 1202.82 308.765 1202.82 311.285L1197.69 310.835C1197.69 306.02 1201.96 302.78 1208.31 302.78C1214.29 302.78 1217.35 305.66 1217.35 311.24V326H1212.18V321.32C1211.19 324.74 1208.62 326.72 1204.98 326.72ZM1202.37 319.43C1202.37 321.23 1203.85 322.22 1205.79 322.22C1209.21 322.22 1212.18 318.89 1212.18 315.065V314.3C1211.28 315.335 1209.93 315.965 1208.08 316.1C1205.11 316.37 1202.37 317 1202.37 319.43ZM1232.19 326C1227.38 326 1224.99 323.705 1224.99 319.115V308H1220.13V303.5H1224.99V296.255H1230.17V303.5H1236.92V308H1230.17V318.8C1230.17 320.6 1231.07 321.5 1232.87 321.5H1236.92V326H1232.19ZM1241.39 326V303.5H1246.57V326H1241.39ZM1240.85 300.215V294.905H1247.06V300.215H1240.85ZM1258.25 326L1250.11 303.5H1255.6L1261.63 320.195L1268.02 303.5H1273.51L1264.87 326H1258.25ZM1286.49 326.72C1279.6 326.72 1274.92 321.905 1274.92 314.75C1274.92 307.685 1279.38 302.78 1285.86 302.78C1292.38 302.78 1296.75 307.595 1296.75 314.84V316.235H1280.28C1280.28 319.745 1282.8 322.22 1286.31 322.22C1288.78 322.22 1290.76 320.96 1291.44 318.98L1296.7 319.43C1295.94 323.84 1291.84 326.72 1286.49 326.72ZM1280.28 312.275H1291.39C1291.39 309.17 1289.32 307.28 1285.86 307.28C1282.39 307.28 1280.28 309.17 1280.28 312.275ZM1322.51 326.72C1314.72 326.72 1309.68 320.96 1309.68 314.12L1315.04 313.67C1315.04 318.62 1318.01 322.22 1322.51 322.22C1325.7 322.22 1328.49 320.555 1328.49 317.54C1328.49 310.205 1311.44 312.86 1311.44 302.555C1311.44 297.47 1315.98 293.78 1321.88 293.78C1327.95 293.78 1332.59 297.92 1332.59 303.365L1327.28 303.815C1327.28 300.755 1324.94 298.28 1321.74 298.28C1319.13 298.28 1316.75 299.99 1316.75 302.465C1316.75 309.08 1333.8 306.245 1333.8 317.27C1333.8 322.715 1329.08 326.72 1322.51 326.72ZM1338.86 326V294.5H1348.76C1358.75 294.5 1363.97 299.9 1363.97 310.25C1363.97 320.6 1358.75 326 1348.76 326H1338.86ZM1344.17 321.5H1348.76C1355.69 321.5 1358.66 318.125 1358.66 310.25C1358.66 302.375 1355.69 299 1348.76 299H1344.17V321.5ZM1369.27 326V294.5H1374.58V321.5H1389.21V326H1369.27ZM1404.94 326.72C1395.98 326.72 1389.55 319.88 1389.55 310.25C1389.55 300.62 1395.98 293.78 1404.94 293.78C1412.86 293.78 1418.53 299.135 1418.89 306.92L1413.53 307.37C1413.13 301.79 1409.84 298.325 1404.94 298.325C1399.09 298.325 1394.86 303.32 1394.86 310.25C1394.86 317.225 1399.09 322.22 1404.94 322.22C1409.84 322.22 1413.22 318.755 1413.58 313.355L1418.89 313.805C1418.53 321.455 1412.81 326.72 1404.94 326.72Z" fill="black"/>
</g>
<defs>
<filter id="filter0_f_3120_1209" x="47" y="-59" width="1715" height="693" filterUnits="userSpaceOnUse" color-interpolation-filters="sRGB">
<feFlood flood-opacity="0" result="BackgroundImageFix"/>
<feBlend mode="normal" in="SourceGraphic" in2="BackgroundImageFix" result="shape"/>
<feGaussianBlur stdDeviation="50" result="effect1_foregroundBlur_3120_1209"/>
</filter>
<radialGradient id="paint0_radial_3120_1209" cx="0" cy="0" r="1" gradientTransform="matrix(-919.53 -692.856 -361.681 536.064 843.478 247.62)" gradientUnits="userSpaceOnUse">
<stop offset="0.596154" stop-color="#B4D13F"/>
<stop offset="1" stop-color="white" stop-opacity="0"/>
</radialGradient>
<clipPath id="clip0_3120_1209">
<rect width="1808" height="576" fill="white"/>
</clipPath>
</defs>
</svg>
