<svg width="1808" height="576" viewBox="0 0 1808 576" fill="none" xmlns="http://www.w3.org/2000/svg">
<g clip-path="url(#clip0_3121_186)">
<rect width="1808" height="576" fill="black"/>
<path opacity="0.7" d="M-208.07 1004.58H-322V884.029M-208.07 1004.58V884.029M-208.07 1004.58H-92.2885V884.029M-208.07 884.029H-322M-208.07 884.029V762.494M-208.07 884.029H-92.2885M-322 884.029V762.494M-208.07 762.494H-322M-208.07 762.494L-208.07 641.939M-208.07 762.494H-92.2885M-322 762.494V641.939M-208.07 641.939H-322M-208.07 641.939V521.383M-208.07 641.939H-92.2885M-322 641.939L-322 521.383M-208.07 521.383H-322M-208.07 521.383L-208.07 399.848M-208.07 521.383H-92.2885M-322 521.383V399.848M-208.07 399.848H-322M-208.07 399.848V279.292M-208.07 399.848H-92.2885M-322 399.848V279.292M-208.07 279.292H-322M-208.07 279.292H-92.2885M-208.07 279.292V158.737M-322 279.292V158.737M249.5 1004.58H134.644V884.029M249.5 1004.58V884.029M249.5 1004.58H363.429V884.029M249.5 884.029H134.644M249.5 884.029V762.494M249.5 884.029H363.429M134.644 884.029V762.494M249.5 762.494H134.644M249.5 762.494V641.939M249.5 762.494H363.429M134.644 762.494V641.939M249.5 641.939H134.644M249.5 641.939V521.383M249.5 641.939H363.429M134.644 641.939L134.644 521.383M249.5 521.383H134.644M249.5 521.383V399.848M249.5 521.383H363.429M134.644 521.383V399.848M249.5 399.848H134.644M249.5 399.848V279.292M249.5 399.848H363.429M134.644 399.848V279.292M249.5 279.292H134.644M249.5 279.292H363.429M249.5 279.292V158.737M134.644 279.292V158.737M20.7147 1004.58H-93.2147V884.029M20.7147 1004.58V884.029M20.7147 1004.58H135.571V884.029M20.7147 884.029H-93.2147M20.7147 884.029V762.494M20.7147 884.029H135.571M-93.2147 884.029L-93.2147 762.494M20.7147 762.494H-93.2147M20.7147 762.494V641.939M20.7147 762.494H135.571M-93.2147 762.494V641.939M20.7147 641.939H-93.2147M20.7147 641.939L20.7147 521.383M20.7147 641.939H135.571M-93.2147 641.939V521.383M20.7147 521.383H-93.2147M20.7147 521.383V399.848M20.7147 521.383H135.571M-93.2147 521.383V399.848M20.7147 399.848H-93.2147M20.7147 399.848V279.292M20.7147 399.848H135.571M-93.2147 399.848L-93.2147 279.292M20.7147 279.292H-93.2147M20.7147 279.292H135.571M20.7147 279.292V158.737M-93.2147 279.292V158.737M477.359 1004.58H362.503V884.029M477.359 1004.58V884.029M477.359 1004.58H591.289M477.359 884.029H362.503M477.359 884.029V762.494M477.359 884.029H591.289M362.503 884.029V762.494M477.359 762.494H362.503M477.359 762.494V641.939M477.359 762.494H591.289M362.503 762.494V641.939M477.359 641.939H362.503M477.359 641.939V521.383M477.359 641.939H591.289M362.503 641.939V521.383M477.359 521.383H362.503M477.359 521.383V399.848M477.359 521.383H591.289M362.503 521.383V399.848M477.359 399.848H362.503M477.359 399.848V279.292M477.359 399.848H591.289M362.503 399.848V279.292M477.359 279.292H362.503M477.359 279.292H591.289M477.359 279.292V158.737M362.503 279.292V158.737M591.289 1004.58L707.071 1004.58M591.289 1004.58V884.029M707.071 1004.58V884.029M707.071 1004.58H821M707.071 884.029H591.289M707.071 884.029V762.494M707.071 884.029L821 884.029M591.289 884.029V762.494M707.071 762.494H591.289M707.071 762.494V641.939M707.071 762.494H821M591.289 762.494V641.939M707.071 641.939H591.289M707.071 641.939V521.383M707.071 641.939H821M591.289 641.939V521.383M707.071 521.383H591.289M707.071 521.383V399.848M707.071 521.383H821M591.289 521.383V399.848M707.071 399.848L591.289 399.848M707.071 399.848V279.292M707.071 399.848H821M591.289 399.848V279.292M707.071 279.292L591.289 279.292M707.071 279.292H821M707.071 279.292V158.737M591.289 279.292V158.737M-92.2885 884.029L-92.2885 762.494M-92.2885 762.494V641.939M-92.2885 641.939V521.383M-92.2885 521.383V399.848M-92.2885 399.848L-92.2885 279.292M-92.2885 279.292V158.737M363.429 884.029V762.494M363.429 762.494V641.939M363.429 641.939V521.383M363.429 521.383V399.848M363.429 399.848V279.292M363.429 279.292V158.737M135.571 884.029V762.494M135.571 762.494V641.939M135.571 641.939L135.571 521.383M135.571 521.383V399.848M135.571 399.848V279.292M135.571 279.292V158.737M821 1004.58V884.029M821 1004.58H934.93M821 884.029V762.494M821 884.029H934.93M821 762.494V641.939M821 762.494L934.93 762.494M821 641.939V521.383M821 641.939H934.93M821 521.383V399.848M821 521.383H934.93M821 399.848V279.292M821 399.848H934.93M821 279.292H934.93M821 279.292V158.737M934.93 1004.58V884.029M934.93 1004.58H1050.71V884.029M934.93 884.029V762.494M934.93 884.029H1050.71M934.93 762.494V641.939M934.93 762.494H1050.71M934.93 641.939V521.383M934.93 641.939H1050.71M934.93 521.383V399.848M934.93 521.383H1050.71M934.93 399.848V279.292M934.93 399.848H1050.71M934.93 279.292H1050.71M934.93 279.292V158.737M1392.5 1004.58H1277.64V884.029M1392.5 1004.58V884.029M1392.5 1004.58H1506.43V884.029M1392.5 884.029H1277.64M1392.5 884.029V762.494M1392.5 884.029H1506.43M1277.64 884.029V762.494M1392.5 762.494H1277.64M1392.5 762.494V641.939M1392.5 762.494H1506.43M1277.64 762.494V641.939M1392.5 641.939H1277.64M1392.5 641.939V521.383M1392.5 641.939H1506.43M1277.64 641.939V521.383M1392.5 521.383H1277.64M1392.5 521.383V399.848M1392.5 521.383H1506.43M1277.64 521.383V399.848M1392.5 399.848H1277.64M1392.5 399.848V279.292M1392.5 399.848H1506.43M1277.64 399.848V279.292M1392.5 279.292H1277.64M1392.5 279.292H1506.43M1392.5 279.292V158.737M1277.64 279.292V158.737M1163.71 1004.58H1049.79V884.029M1163.71 1004.58V884.029M1163.71 1004.58H1278.57V884.029M1163.71 884.029H1049.79M1163.71 884.029V762.494M1163.71 884.029H1278.57M1049.79 884.029V762.494M1163.71 762.494H1049.79M1163.71 762.494V641.939M1163.71 762.494H1278.57M1049.79 762.494V641.939M1163.71 641.939L1049.79 641.939M1163.71 641.939V521.383M1163.71 641.939H1278.57M1049.79 641.939V521.383M1163.71 521.383L1049.79 521.383M1163.71 521.383V399.848M1163.71 521.383H1278.57M1049.79 521.383V399.848M1163.71 399.848H1049.79M1163.71 399.848V279.292M1163.71 399.848H1278.57M1049.79 399.848V279.292M1163.71 279.292H1049.79M1163.71 279.292H1278.57M1163.71 279.292V158.737M1049.79 279.292V158.737M1620.36 1004.58H1505.5V884.029M1620.36 1004.58V884.029M1620.36 1004.58H1734.29M1620.36 884.029H1505.5M1620.36 884.029V762.494M1620.36 884.029H1734.29M1505.5 884.029V762.494M1620.36 762.494H1505.5M1620.36 762.494V641.939M1620.36 762.494H1734.29M1505.5 762.494V641.939M1620.36 641.939H1505.5M1620.36 641.939V521.383M1620.36 641.939H1734.29M1505.5 641.939V521.383M1620.36 521.383H1505.5M1620.36 521.383V399.848M1620.36 521.383H1734.29M1505.5 521.383V399.848M1620.36 399.848H1505.5M1620.36 399.848V279.292M1620.36 399.848H1734.29M1505.5 399.848V279.292M1620.36 279.292H1505.5M1620.36 279.292H1734.29M1620.36 279.292V158.737M1505.5 279.292V158.737M1734.29 1004.58H1850.07M1734.29 1004.58V884.029M1850.07 1004.58V884.029M1850.07 1004.58H1964V884.029M1850.07 884.029H1734.29M1850.07 884.029V762.494M1850.07 884.029H1964M1734.29 884.029V762.494M1850.07 762.494H1734.29M1850.07 762.494V641.939M1850.07 762.494H1964M1734.29 762.494V641.939M1850.07 641.939H1734.29M1850.07 641.939V521.383M1850.07 641.939H1964M1734.29 641.939V521.383M1850.07 521.383H1734.29M1850.07 521.383V399.848M1850.07 521.383H1964M1734.29 521.383V399.848M1850.07 399.848H1734.29M1850.07 399.848V279.292M1850.07 399.848H1964M1734.29 399.848V279.292M1850.07 279.292H1734.29M1850.07 279.292H1964M1850.07 279.292V158.737M1734.29 279.292V158.737M1050.71 884.029V762.494M1050.71 762.494V641.939M1050.71 641.939V521.383M1050.71 521.383V399.848M1050.71 399.848V279.292M1050.71 279.292V158.737M1506.43 884.029V762.494M1506.43 762.494V641.939M1506.43 641.939V521.383M1506.43 521.383V399.848M1506.43 399.848V279.292M1506.43 279.292V158.737M1278.57 884.029V762.494M1278.57 762.494V641.939M1278.57 641.939V521.383M1278.57 521.383V399.848M1278.57 399.848V279.292M1278.57 279.292V158.737M1964 884.029V762.494M1964 762.494V641.939M1964 641.939V521.383M1964 521.383V399.848M1964 399.848V279.292M1964 279.292V158.737M-208.07 158.737H-322M-208.07 158.737V37.2015M-208.07 158.737H-92.2885M-322 158.737V37.2015M-208.07 37.2015H-322M-208.07 37.2015V-83.3537M-208.07 37.2015H-92.2885M-322 37.2015V-83.3537M-208.07 -83.3537H-322M-208.07 -83.3537V-203.909M-208.07 -83.3537H-92.2885M-322 -83.3537V-203.909M-208.07 -203.909H-322M-208.07 -203.909L-208.07 -325.445M-208.07 -203.909H-92.2885M-322 -203.909V-325.445M-208.07 -325.445H-322M-208.07 -325.445V-446M-208.07 -325.445H-92.2885M-322 -325.445L-322 -446H-208.07M-208.07 -446H-92.2885V-325.445M249.5 158.737H134.644M249.5 158.737L249.5 37.2015M249.5 158.737H363.429M134.644 158.737V37.2015M249.5 37.2015H134.644M249.5 37.2015V-83.3537M249.5 37.2015H363.429M134.644 37.2015V-83.3537M249.5 -83.3537H134.644M249.5 -83.3537V-203.909M249.5 -83.3537H363.429M134.644 -83.3537V-203.909M249.5 -203.909H134.644M249.5 -203.909V-325.445M249.5 -203.909H363.429M134.644 -203.909V-325.445M249.5 -325.445H134.644M249.5 -325.445V-446M249.5 -325.445H363.429M134.644 -325.445L134.644 -446H249.5M249.5 -446H363.429V-325.445M20.7147 158.737H-93.2147M20.7147 158.737V37.2015M20.7147 158.737H135.571M-93.2147 158.737V37.2015M20.7147 37.2015H-93.2147M20.7147 37.2015V-83.3537M20.7147 37.2015H135.571M-93.2147 37.2015V-83.3537M20.7147 -83.3537H-93.2147M20.7147 -83.3537V-203.909M20.7147 -83.3537H135.571M-93.2147 -83.3537L-93.2147 -203.909M20.7147 -203.909H-93.2147M20.7147 -203.909V-325.445M20.7147 -203.909H135.571M-93.2147 -203.909V-325.445M20.7147 -325.445H-93.2147M20.7147 -325.445L20.7147 -446M20.7147 -325.445H135.571M-93.2147 -325.445V-446H20.7147M20.7147 -446H135.571L135.571 -325.445M477.359 158.737H362.503M477.359 158.737L477.359 37.2015M477.359 158.737H591.289M362.503 158.737L362.503 37.2015M477.359 37.2015H362.503M477.359 37.2015V-83.3537M477.359 37.2015H591.289M362.503 37.2015V-83.3537M477.359 -83.3537H362.503M477.359 -83.3537V-203.909M477.359 -83.3537H591.289M362.503 -83.3537V-203.909M477.359 -203.909H362.503M477.359 -203.909V-325.445M477.359 -203.909H591.289M362.503 -203.909V-325.445M477.359 -325.445H362.503M477.359 -325.445V-446M477.359 -325.445H591.289M362.503 -325.445V-446H477.359M477.359 -446H591.289M707.071 158.737L591.289 158.737M707.071 158.737V37.2015M707.071 158.737H821M591.289 158.737L591.289 37.2015M707.071 37.2015L591.289 37.2015M707.071 37.2015V-83.3537M707.071 37.2015H821M591.289 37.2015V-83.3537M707.071 -83.3537H591.289M707.071 -83.3537V-203.909M707.071 -83.3537H821M591.289 -83.3537V-203.909M707.071 -203.909H591.289M707.071 -203.909V-325.445M707.071 -203.909H821M591.289 -203.909V-325.445M707.071 -325.445H591.289M707.071 -325.445V-446M707.071 -325.445H821M591.289 -325.445V-446M707.071 -446H591.289M707.071 -446H821M-92.2885 158.737V37.2015M-92.2885 37.2015V-83.3537M-92.2885 -83.3537L-92.2885 -203.909M-92.2885 -203.909V-325.445M363.429 158.737L363.429 37.2015M363.429 37.2015V-83.3537M363.429 -83.3537V-203.909M363.429 -203.909V-325.445M135.571 158.737V37.2015M135.571 37.2015V-83.3537M135.571 -83.3537V-203.909M135.571 -203.909V-325.445M821 158.737V37.2015M821 158.737H934.93M821 37.2015V-83.3537M821 37.2015H934.93M821 -83.3537V-203.909M821 -83.3537H934.93M821 -203.909V-325.445M821 -203.909H934.93M821 -325.445V-446M821 -325.445H934.93M821 -446H934.93M934.93 158.737V37.2015M934.93 158.737H1050.71M934.93 37.2015V-83.3537M934.93 37.2015H1050.71M934.93 -83.3537V-203.909M934.93 -83.3537H1050.71M934.93 -203.909V-325.445M934.93 -203.909H1050.71M934.93 -325.445V-446M934.93 -325.445H1050.71M934.93 -446H1050.71V-325.445M1392.5 158.737H1277.64M1392.5 158.737V37.2015M1392.5 158.737H1506.43M1277.64 158.737V37.2015M1392.5 37.2015H1277.64M1392.5 37.2015V-83.3537M1392.5 37.2015H1506.43M1277.64 37.2015V-83.3537M1392.5 -83.3537H1277.64M1392.5 -83.3537V-203.909M1392.5 -83.3537H1506.43M1277.64 -83.3537V-203.909M1392.5 -203.909H1277.64M1392.5 -203.909V-325.445M1392.5 -203.909H1506.43M1277.64 -203.909V-325.445M1392.5 -325.445H1277.64M1392.5 -325.445V-446M1392.5 -325.445H1506.43M1277.64 -325.445V-446H1392.5M1392.5 -446H1506.43V-325.445M1163.71 158.737H1049.79M1163.71 158.737V37.2015M1163.71 158.737H1278.57M1049.79 158.737V37.2015M1163.71 37.2015H1049.79M1163.71 37.2015V-83.3537M1163.71 37.2015H1278.57M1049.79 37.2015V-83.3537M1163.71 -83.3537H1049.79M1163.71 -83.3537V-203.909M1163.71 -83.3537H1278.57M1049.79 -83.3537V-203.909M1163.71 -203.909H1049.79M1163.71 -203.909V-325.445M1163.71 -203.909H1278.57M1049.79 -203.909V-325.445M1163.71 -325.445H1049.79M1163.71 -325.445V-446M1163.71 -325.445H1278.57M1049.79 -325.445V-446H1163.71M1163.71 -446H1278.57V-325.445M1620.36 158.737H1505.5M1620.36 158.737V37.2015M1620.36 158.737H1734.29M1505.5 158.737V37.2015M1620.36 37.2015H1505.5M1620.36 37.2015V-83.3537M1620.36 37.2015H1734.29M1505.5 37.2015V-83.3537M1620.36 -83.3537L1505.5 -83.3537M1620.36 -83.3537V-203.909M1620.36 -83.3537H1734.29M1505.5 -83.3537V-203.909M1620.36 -203.909L1505.5 -203.909M1620.36 -203.909V-325.445M1620.36 -203.909H1734.29M1505.5 -203.909V-325.445M1620.36 -325.445L1505.5 -325.445M1620.36 -325.445V-446M1620.36 -325.445H1734.29M1505.5 -325.445V-446L1620.36 -446M1620.36 -446H1734.29M1850.07 158.737H1734.29M1850.07 158.737V37.2015M1850.07 158.737H1964M1734.29 158.737V37.2015M1850.07 37.2015H1734.29M1850.07 37.2015V-83.3537M1850.07 37.2015H1964M1734.29 37.2015V-83.3537M1850.07 -83.3537H1734.29M1850.07 -83.3537V-203.909M1850.07 -83.3537H1964M1734.29 -83.3537V-203.909M1850.07 -203.909H1734.29M1850.07 -203.909V-325.445M1850.07 -203.909H1964M1734.29 -203.909V-325.445M1850.07 -325.445H1734.29M1850.07 -325.445V-446M1850.07 -325.445H1964M1734.29 -325.445V-446M1850.07 -446H1734.29M1850.07 -446H1964V-325.445M1050.71 158.737V37.2015M1050.71 37.2015V-83.3537M1050.71 -83.3537V-203.909M1050.71 -203.909V-325.445M1506.43 158.737V37.2015M1506.43 37.2015V-83.3537M1506.43 -83.3537V-203.909M1506.43 -203.909V-325.445M1278.57 158.737V37.2015M1278.57 37.2015V-83.3537M1278.57 -83.3537V-203.909M1278.57 -203.909V-325.445M1964 158.737V37.2015M1964 37.2015V-83.3537M1964 -83.3537V-203.909M1964 -203.909V-325.445" stroke="url(#paint0_radial_3121_186)" stroke-opacity="0.5" stroke-width="0.949336"/>
<g filter="url(#filter0_f_3121_186)">
<ellipse cx="904.5" cy="287.5" rx="757.5" ry="246.5" fill="black"/>
</g>
<path d="M434.185 320.24C429.69 320.24 425.921 319.368 422.877 317.624C419.832 315.88 417.44 313.518 415.7 310.538V265.624C417.585 262.498 420.049 260.064 423.094 258.32C426.138 256.575 429.836 255.703 434.185 255.703C439.911 255.703 444.804 257.084 448.864 259.846C452.923 262.607 456.04 266.423 458.215 271.292C460.462 276.162 461.585 281.758 461.585 288.081C461.585 294.331 460.462 299.891 458.215 304.76C456.04 309.63 452.923 313.445 448.864 316.207C444.804 318.896 439.911 320.24 434.185 320.24ZM402 340.299V257.447H415.7V340.299H402ZM432.01 307.922C435.344 307.922 438.172 307.086 440.491 305.414C442.811 303.67 444.55 301.308 445.711 298.328C446.943 295.276 447.559 291.86 447.559 288.081C447.559 284.229 446.943 280.777 445.711 277.724C444.55 274.672 442.811 272.31 440.491 270.638C438.172 268.894 435.344 268.022 432.01 268.022C428.313 268.022 425.269 268.93 422.877 270.747C420.485 272.492 418.672 274.89 417.44 277.942C416.28 280.922 415.7 284.302 415.7 288.081C415.7 291.787 416.28 295.167 417.44 298.22C418.672 301.199 420.485 303.561 422.877 305.305C425.269 307.049 428.313 307.922 432.01 307.922Z" fill="white"/>
<path d="M495.982 320.254C489.788 320.254 484.351 318.909 479.669 316.219C475.061 313.457 471.459 309.641 468.867 304.77C466.346 299.9 465.086 294.339 465.086 288.088C465.086 281.763 466.346 276.166 468.867 271.296C471.459 266.425 475.061 262.609 479.669 259.847C484.351 257.084 489.824 255.703 496.09 255.703C502.284 255.703 507.685 257.084 512.294 259.847C516.903 262.609 520.468 266.425 522.989 271.296C525.582 276.166 526.878 281.763 526.878 288.088C526.878 294.339 525.582 299.9 522.989 304.77C520.468 309.641 516.903 313.457 512.294 316.219C507.685 318.909 502.247 320.254 495.982 320.254ZM496.09 307.933C499.763 307.933 502.859 307.097 505.38 305.425C507.901 303.68 509.809 301.317 511.106 298.337C512.402 295.284 513.05 291.867 513.05 288.088C513.05 284.235 512.402 280.782 511.106 277.729C509.809 274.676 507.901 272.313 505.38 270.641C502.859 268.897 499.763 268.024 496.09 268.024C492.345 268.024 489.212 268.897 486.691 270.641C484.171 272.313 482.262 274.676 480.966 277.729C479.669 280.782 479.021 284.235 479.021 288.088C479.021 291.867 479.669 295.284 480.966 298.337C482.262 301.317 484.171 303.68 486.691 305.425C489.212 307.097 492.345 307.933 496.09 307.933Z" fill="white"/>
<path d="M602.343 320.24C597.862 320.24 594.105 319.368 591.07 317.624C588.035 315.88 585.65 313.518 583.916 310.538V265.624C585.794 262.498 588.252 260.064 591.287 258.32C594.322 256.575 598.007 255.703 602.343 255.703C608.052 255.703 612.93 257.084 616.977 259.846C621.023 262.607 624.131 266.423 626.298 271.292C628.539 276.162 629.659 281.758 629.659 288.081C629.659 294.331 628.539 299.891 626.298 304.76C624.131 309.63 621.023 313.445 616.977 316.207C612.93 318.896 608.052 320.24 602.343 320.24ZM570.258 340.299V257.447H583.916V340.299H570.258ZM600.175 307.922C603.499 307.922 606.318 307.086 608.63 305.414C610.942 303.67 612.677 301.308 613.833 298.328C615.061 295.276 615.676 291.86 615.676 288.081C615.676 284.229 615.061 280.777 613.833 277.724C612.677 274.672 610.942 272.31 608.63 270.638C606.318 268.894 603.499 268.022 600.175 268.022C596.489 268.022 593.454 268.93 591.07 270.747C588.685 272.492 586.879 274.89 585.65 277.942C584.494 280.922 583.916 284.302 583.916 288.081C583.916 291.787 584.494 295.167 585.65 298.22C586.879 301.199 588.685 303.561 591.07 305.305C593.454 307.049 596.489 307.922 600.175 307.922Z" fill="white"/>
<path d="M779.086 320.24C783.567 320.24 787.325 319.368 790.36 317.624C793.395 315.88 795.78 313.518 797.514 310.538V265.624C795.635 262.498 793.178 260.064 790.143 258.32C787.108 256.575 783.423 255.703 779.086 255.703C773.378 255.703 768.5 257.084 764.453 259.846C760.406 262.607 757.299 266.423 755.131 271.292C752.891 276.162 751.771 281.758 751.771 288.081C751.771 294.331 752.891 299.891 755.131 304.76C757.299 309.63 760.406 313.445 764.453 316.207C768.5 318.896 773.378 320.24 779.086 320.24ZM811.172 320.24V257.447H797.514V320.24H811.172ZM781.255 307.922C777.93 307.922 775.112 307.086 772.8 305.414C770.487 303.67 768.753 301.308 767.597 298.328C766.368 295.276 765.754 291.86 765.754 288.081C765.754 284.229 766.368 280.777 767.597 277.724C768.753 274.672 770.487 272.31 772.8 270.638C775.112 268.894 777.93 268.022 781.255 268.022C784.94 268.022 787.975 268.93 790.36 270.747C792.745 272.492 794.551 274.89 795.78 277.942C796.936 280.922 797.514 284.302 797.514 288.081C797.514 291.787 796.936 295.167 795.78 298.22C794.551 301.199 792.745 303.561 790.36 305.305C787.975 307.049 784.94 307.922 781.255 307.922Z" fill="white"/>
<path d="M639.476 257.642H652.748V318.414H639.476V257.642ZM635.547 236.154L650.094 232.898L653.386 247.766L638.838 251.13L635.547 236.154Z" fill="white"/>
<path d="M821.624 257.642H834.897V318.414H821.624V257.642ZM817.695 236.154L832.243 232.898L835.534 247.766L820.987 251.13L817.695 236.154Z" fill="white"/>
<path d="M673.667 292.558V281.327H709.293L704.42 284.49C704.709 281.727 704.348 279.11 703.337 276.638C702.399 274.094 700.846 272.023 698.681 270.423C696.515 268.824 693.7 268.024 690.235 268.024C685.542 268.024 681.608 269.515 678.431 272.495C675.256 275.475 673.667 279.764 673.667 285.362H659.266C659.698 279.037 661.323 273.694 664.138 269.333C667.026 264.899 670.708 261.519 675.183 259.192C679.731 256.866 684.748 255.703 690.235 255.703C694.35 255.703 698.211 256.539 701.821 258.211C705.503 259.81 708.643 262.209 711.242 265.408C713.913 268.533 715.862 272.386 717.089 276.966C718.389 281.545 718.641 286.743 717.847 292.558H673.667ZM690.235 320.254C684.532 320.254 679.478 319.091 675.075 316.765C670.671 314.438 667.134 311.204 664.463 307.06C661.792 302.917 660.132 298.083 659.482 292.558H673.667C674.245 297.065 675.869 300.772 678.54 303.68C681.211 306.515 685.109 307.933 690.235 307.933C693.844 307.933 696.732 307.097 698.898 305.425C701.135 303.68 702.723 301.572 703.662 299.1H717.955C717.089 303.316 715.393 307.024 712.866 310.222C710.34 313.348 707.163 315.82 703.337 317.637C699.511 319.382 695.144 320.254 690.235 320.254Z" fill="white"/>
<path d="M563.748 318.267V306.766H550.141V269.265H562.047V257.601H550.141V232.979H536.776V257.601H528.758V269.265H536.776V318.267H563.748Z" fill="white"/>
<path d="M742.68 301.941L728.133 305.197L731.424 320.173L745.972 316.809L742.68 301.941Z" fill="white"/>
<path fill-rule="evenodd" clip-rule="evenodd" d="M256.066 219.436C264.714 210.855 278.657 210.855 287.306 219.436C291.916 224.009 298.296 226.333 304.765 225.795C314.892 224.951 324.005 231.057 327.393 240.152L278.206 268.216L274.221 270.534C270.76 272.549 268.607 276.227 268.55 280.233L268.263 300.024L268.263 305.884C268.263 310.103 270.575 313.999 274.308 316.01L319.389 340.307C315.475 342.547 312.293 345.953 310.332 350.113C305.138 361.136 292.035 365.908 280.976 360.806C275.081 358.085 268.291 358.085 262.396 360.806C251.337 365.908 238.234 361.136 233.039 350.113C230.271 344.238 225.069 339.87 218.806 338.162C207.056 334.958 200.085 322.874 203.186 311.087C204.839 304.805 203.66 298.114 199.959 292.778C193.018 282.764 195.438 269.025 205.384 261.992C210.686 258.242 214.081 252.358 214.674 245.89C215.788 233.755 226.47 224.784 238.607 225.795C245.075 226.333 251.455 224.009 256.066 219.436Z" fill="#B6E343"/>
<path fill-rule="evenodd" clip-rule="evenodd" d="M282.415 277.554L282.506 277.376L282.595 277.237C282.523 277.338 282.461 277.442 282.415 277.554ZM330.39 325.626C331.186 326.056 331.584 326.272 331.794 326.627C331.966 326.917 332.041 327.329 331.981 327.661C331.907 328.067 331.638 328.375 331.101 328.991C330.261 329.953 329.336 330.846 328.333 331.657C327.812 332.078 327.552 332.289 327.173 332.417C326.866 332.521 326.452 332.56 326.132 332.514C325.736 332.457 325.394 332.273 324.711 331.905L278.995 307.282C278.474 307 278.148 306.454 278.148 305.86L278.148 300C278.148 298.778 279.45 298 280.523 298.58L330.39 325.626Z" fill="#B6E343"/>
<path fill-rule="evenodd" clip-rule="evenodd" d="M330.17 255.034C330.844 253.158 331.181 252.22 330.967 251.69C330.781 251.231 330.38 250.894 329.897 250.788C329.338 250.666 328.47 251.156 326.735 252.137L283.102 276.781C282.892 276.903 282.724 277.057 282.594 277.236L282.505 277.375L282.414 277.553C282.313 277.797 282.274 278.062 282.294 278.317L282.302 278.391C282.364 278.885 282.65 279.351 283.155 279.616L329.542 305.821C330.409 306.312 330.843 306.557 331.123 306.495C331.365 306.443 331.565 306.274 331.657 306.044C331.765 305.78 331.596 305.311 331.26 304.373L322.15 278.996C322.042 278.696 321.988 278.546 321.967 278.392C321.949 278.256 321.949 278.117 321.967 277.98C321.988 277.826 322.042 277.676 322.15 277.376L330.17 255.034Z" fill="#B6E343"/>
<line x1="994.5" y1="211" x2="994.5" y2="365" stroke="#B6E343" stroke-width="5"/>
<path d="M1139.51 276.72C1130.78 276.72 1124.57 269.835 1124.57 260.25C1124.57 250.665 1130.78 243.78 1139.51 243.78C1147.11 243.78 1152.56 249.045 1153.1 256.83L1148.64 257.28C1148.1 251.385 1144.59 247.695 1139.51 247.695C1133.39 247.695 1128.98 252.96 1128.98 260.25C1128.98 267.54 1133.34 272.85 1139.51 272.85C1144.64 272.85 1148.19 269.16 1148.64 263.445L1153.1 263.895C1152.51 271.59 1147.07 276.72 1139.51 276.72ZM1168.75 276.72C1162.27 276.72 1157.77 271.815 1157.77 264.795C1157.77 257.775 1162.32 252.78 1168.75 252.78C1175.19 252.78 1179.69 257.73 1179.69 264.795C1179.69 271.86 1175.19 276.72 1168.75 276.72ZM1162.18 264.795C1162.18 269.655 1164.79 272.85 1168.75 272.85C1172.71 272.85 1175.32 269.655 1175.32 264.795C1175.32 259.89 1172.71 256.65 1168.75 256.65C1164.79 256.65 1162.18 259.89 1162.18 264.795ZM1199.15 261.87C1199.15 258.585 1197.53 256.65 1194.83 256.65C1191.19 256.65 1188.67 260.115 1188.67 265.065V276H1184.39V253.5H1188.67V257.55C1190.02 254.67 1192.94 252.78 1196.5 252.78C1200.91 252.78 1203.43 255.705 1203.43 260.745V276H1199.15V261.87ZM1218.31 276C1213.76 276 1211.56 273.84 1211.56 269.385V257.37H1206.7V253.5H1211.56V246.3H1215.83V253.5H1222.58V257.37H1215.83V269.43C1215.83 271.23 1216.73 272.13 1218.53 272.13H1222.58V276H1218.31ZM1236.52 276.72C1229.86 276.72 1225.4 271.905 1225.4 264.75C1225.4 257.685 1229.72 252.78 1235.98 252.78C1242.23 252.78 1246.42 257.595 1246.42 264.84V265.965H1229.81C1229.81 270.015 1232.51 272.85 1236.34 272.85C1239.13 272.85 1241.33 271.365 1241.96 269.025L1246.33 269.475C1245.52 273.84 1241.6 276.72 1236.52 276.72ZM1229.81 262.455H1242.01C1242.01 258.855 1239.67 256.65 1235.93 256.65C1232.2 256.65 1229.81 258.9 1229.81 262.455ZM1264.29 276L1258.76 268.26L1253.18 276H1248.18L1256.24 264.75L1248.18 253.5H1253.18L1258.76 261.24L1264.29 253.5H1269.33L1261.28 264.75L1269.33 276H1264.29ZM1282.2 276C1277.66 276 1275.45 273.84 1275.45 269.385V257.37H1270.59V253.5H1275.45V246.3H1279.73V253.5H1286.48V257.37H1279.73V269.43C1279.73 271.23 1280.63 272.13 1282.43 272.13H1286.48V276H1282.2ZM1310.82 285.72C1305.2 285.72 1300.7 282.57 1300.7 278.655L1305.24 278.205C1305.38 280.275 1307.76 281.85 1310.82 281.85C1314.92 281.85 1317.39 279.285 1317.39 275.145V271.995C1316.13 274.965 1313.48 276.72 1310.01 276.72C1304.21 276.72 1300.02 271.725 1300.02 264.75C1300.02 257.73 1304.16 252.78 1310.01 252.78C1313.48 252.78 1316.13 254.535 1317.39 257.505V253.5H1321.67V274.695C1321.67 281.445 1317.48 285.72 1310.82 285.72ZM1304.43 264.75C1304.43 269.565 1307.04 272.85 1310.91 272.85C1314.78 272.85 1317.39 269.565 1317.39 264.75C1317.39 259.935 1314.78 256.65 1310.91 256.65C1307.04 256.65 1304.43 259.935 1304.43 264.75ZM1328.09 276V253.5H1332.37V258.855C1333.18 255.435 1334.93 253.5 1337.36 253.5H1341.5V257.37H1337.81C1334.08 257.37 1332.37 260.115 1332.37 266.055V276H1328.09ZM1351.14 276.72C1346.73 276.72 1343.45 273.705 1343.45 269.655C1343.45 265.38 1347.14 262.635 1353.35 262.365C1357.22 262.185 1358.84 261.105 1358.39 259.125C1358.03 257.505 1356.5 256.65 1354.02 256.65C1350.51 256.65 1348.22 258.36 1348.22 261.015L1344.03 260.565C1344.03 255.93 1348.08 252.78 1354.11 252.78C1359.83 252.78 1362.84 255.66 1362.84 261.195V276H1358.57V271.14C1357.53 274.605 1354.83 276.72 1351.14 276.72ZM1347.86 269.52C1347.86 271.545 1349.48 272.85 1351.82 272.85C1355.6 272.85 1358.57 269.43 1358.57 265.065V263.85C1357.67 264.885 1356.14 265.515 1353.98 265.65C1350.42 265.83 1347.86 266.955 1347.86 269.52ZM1380.48 276.72C1377.06 276.72 1374.41 274.965 1373.1 272.085V285H1368.83V253.5H1373.1V257.415C1374.41 254.535 1377.06 252.78 1380.48 252.78C1386.33 252.78 1390.47 257.775 1390.47 264.75C1390.47 271.725 1386.33 276.72 1380.48 276.72ZM1373.1 264.75C1373.1 269.565 1375.71 272.85 1379.58 272.85C1383.45 272.85 1386.06 269.565 1386.06 264.75C1386.06 259.935 1383.45 256.65 1379.58 256.65C1375.71 256.65 1373.1 259.935 1373.1 264.75ZM1410.09 261.87C1410.09 258.585 1408.47 256.65 1405.77 256.65C1402.12 256.65 1399.6 260.115 1399.6 265.065V276H1395.33V244.5H1399.6V257.55C1400.95 254.67 1403.88 252.78 1407.43 252.78C1411.84 252.78 1414.36 255.705 1414.36 260.745V276H1410.09V261.87ZM1433.44 250.665C1433.44 246.21 1435.65 244.05 1440.19 244.05H1444.47V247.92H1440.42C1438.62 247.92 1437.72 248.82 1437.72 250.62V253.5H1444.47V257.37H1437.72V276H1433.44V257.37H1428.58V253.5H1433.44V250.665ZM1456.9 276.72C1450.42 276.72 1445.92 271.815 1445.92 264.795C1445.92 257.775 1450.47 252.78 1456.9 252.78C1463.34 252.78 1467.84 257.73 1467.84 264.795C1467.84 271.86 1463.34 276.72 1456.9 276.72ZM1450.33 264.795C1450.33 269.655 1452.94 272.85 1456.9 272.85C1460.86 272.85 1463.47 269.655 1463.47 264.795C1463.47 259.89 1460.86 256.65 1456.9 256.65C1452.94 256.65 1450.33 259.89 1450.33 264.795ZM1472.54 276V253.5H1476.81V258.855C1477.62 255.435 1479.38 253.5 1481.81 253.5H1485.95V257.37H1482.26C1478.52 257.37 1476.81 260.115 1476.81 266.055V276H1472.54Z" fill="white"/>
<path d="M1122.45 326L1132.98 294.5H1142.03L1152.56 326H1146.26L1143.15 316.73H1131.86L1128.75 326H1122.45ZM1133.56 311.645H1141.49L1137.53 299.855L1133.56 311.645ZM1156.54 326V303.5H1162.61V326H1156.54ZM1155.95 300.35V294.5H1163.15V300.35H1155.95ZM1168.57 315.245V310.16H1184.09V315.245H1168.57ZM1204.5 312.365C1204.5 309.575 1203.11 307.865 1200.81 307.865C1197.8 307.865 1195.82 310.745 1195.82 315.065V326H1189.74V303.5H1195.82V307.685C1197.3 304.67 1200.18 302.78 1203.56 302.78C1208.01 302.78 1210.58 306.02 1210.58 311.645V326H1204.5V312.365ZM1222.72 326.72C1218 326.72 1215.07 324.155 1215.07 320.015C1215.07 315.56 1218.49 313.04 1224.97 312.77C1228.71 312.59 1230.42 311.735 1230.15 310.16C1229.92 308.81 1228.39 307.865 1226.41 307.865C1223.8 307.865 1221.73 309.485 1221.73 311.51L1215.7 311.06C1215.7 306.245 1220.2 302.78 1226.41 302.78C1232.44 302.78 1236.27 306.11 1236.27 311.33V326H1230.19V321.5C1229.2 324.92 1226.68 326.72 1222.72 326.72ZM1221.28 319.25C1221.28 320.915 1222.59 321.635 1224.3 321.635C1227.72 321.635 1230.19 318.665 1230.19 315.065V314.615C1229.25 315.695 1227.76 316.415 1225.78 316.685C1224.03 316.91 1221.28 316.82 1221.28 319.25ZM1251.28 326C1246.15 326 1243.63 323.615 1243.63 318.8V308.585H1238.77V303.5H1243.63V296.255H1249.7V303.5H1256.45V308.585H1249.7V318.215C1249.7 320.015 1250.6 320.915 1252.4 320.915H1256.45V326H1251.28ZM1260.64 326V303.5H1266.72V326H1260.64ZM1260.06 300.35V294.5H1267.26V300.35H1260.06ZM1278.16 326L1269.97 303.5H1276.4L1282.12 319.25L1288.19 303.5H1294.67L1285.99 326H1278.16ZM1307.81 326.72C1300.61 326.72 1295.8 321.95 1295.8 314.75C1295.8 307.685 1300.43 302.78 1307.09 302.78C1313.8 302.78 1318.34 307.64 1318.34 314.84V316.55H1302.05C1302.05 319.52 1304.35 321.635 1307.54 321.635C1309.75 321.635 1311.55 320.6 1312.22 318.935L1318.34 319.385C1317.67 323.795 1313.44 326.72 1307.81 326.72ZM1302.05 312.14H1312.09C1312.09 309.44 1310.24 307.865 1307.09 307.865C1303.94 307.865 1302.05 309.485 1302.05 312.14ZM1343.57 326.72C1335.69 326.72 1330.29 320.915 1330.29 314.165L1336.55 313.715C1336.55 318.395 1339.43 321.635 1343.57 321.635C1346.76 321.635 1349.1 319.835 1349.1 317.405C1349.1 310.745 1332.05 312.95 1332.05 302.51C1332.05 297.47 1336.64 293.78 1342.94 293.78C1349.28 293.78 1354.05 297.92 1354.05 303.455L1347.84 303.905C1347.84 301.115 1345.73 298.865 1342.8 298.865C1340.42 298.865 1338.26 300.395 1338.26 302.6C1338.26 308.81 1355.31 306.29 1355.31 316.955C1355.31 322.535 1350.32 326.72 1343.57 326.72ZM1360.04 326V294.5H1370.39C1380.65 294.5 1386.05 299.9 1386.05 310.25C1386.05 320.6 1380.65 326 1370.39 326H1360.04ZM1366.25 320.915H1370.39C1377.14 320.915 1379.84 317.855 1379.84 310.25C1379.84 302.645 1377.14 299.585 1370.39 299.585H1366.25V320.915ZM1391.02 326V294.5H1397.23V320.915H1411.86V326H1391.02ZM1427.71 326.72C1418.49 326.72 1411.87 319.88 1411.87 310.25C1411.87 300.62 1418.49 293.78 1427.71 293.78C1435.95 293.78 1441.8 299.225 1441.98 307.01L1435.77 307.46C1435.5 302.195 1432.39 298.91 1427.71 298.91C1422.09 298.91 1418.08 303.635 1418.08 310.25C1418.08 316.91 1422.09 321.635 1427.71 321.635C1432.35 321.635 1435.5 318.395 1435.77 313.265L1441.98 313.715C1441.8 321.365 1435.9 326.72 1427.71 326.72Z" fill="#B6E343"/>
</g>
<defs>
<filter id="filter0_f_3121_186" x="-53" y="-159" width="1915" height="893" filterUnits="userSpaceOnUse" color-interpolation-filters="sRGB">
<feFlood flood-opacity="0" result="BackgroundImageFix"/>
<feBlend mode="normal" in="SourceGraphic" in2="BackgroundImageFix" result="shape"/>
<feGaussianBlur stdDeviation="100" result="effect1_foregroundBlur_3121_186"/>
</filter>
<radialGradient id="paint0_radial_3121_186" cx="0" cy="0" r="1" gradientTransform="matrix(-919.53 -692.856 -361.681 536.064 843.478 247.62)" gradientUnits="userSpaceOnUse">
<stop offset="0.596154" stop-color="#B4D13F"/>
<stop offset="1" stop-color="white" stop-opacity="0"/>
</radialGradient>
<clipPath id="clip0_3121_186">
<rect width="1808" height="576" fill="white"/>
</clipPath>
</defs>
</svg>
